<mxfile host="app.diagrams.net" modified="2024-05-21T09:30:49.428Z" agent="Mozilla/5.0 (Macintosh; Intel Mac OS X 10_15_7) AppleWebKit/605.1.15 (KHTML, like Gecko) Version/17.5 Safari/605.1.15" etag="S8dBoyitBFW0CsEw1zqa" version="24.4.4" type="github">
  <diagram name="Page-1" id="bfe91b75-5d2c-26a0-9c1d-138518896778">
    <mxGraphModel dx="2840" dy="2626" grid="1" gridSize="10" guides="1" tooltips="1" connect="1" arrows="1" fold="1" page="1" pageScale="1" pageWidth="1100" pageHeight="850" background="none" math="0" shadow="0">
      <root>
        <mxCell id="0" />
        <mxCell id="1" parent="0" />
        <mxCell id="LJwqWdsHmtlXlG4Iy3JH-2" value="" style="rounded=1;whiteSpace=wrap;html=1;arcSize=4;" vertex="1" parent="1">
          <mxGeometry x="180" y="-550" width="1720" height="1070" as="geometry" />
        </mxCell>
        <mxCell id="LJwqWdsHmtlXlG4Iy3JH-1" value="" style="group" vertex="1" connectable="0" parent="1">
          <mxGeometry x="212" y="-522" width="1808" height="1010" as="geometry" />
        </mxCell>
        <mxCell id="x6pVL7PDZadzQxcIjXK9-1" value="" style="rounded=1;whiteSpace=wrap;html=1;fillColor=#dae8fc;strokeColor=#6c8ebf;arcSize=8;" parent="LJwqWdsHmtlXlG4Iy3JH-1" vertex="1">
          <mxGeometry width="899.0055248618785" height="1010" as="geometry" />
        </mxCell>
        <mxCell id="EgRt5MOaTffVcbJhi47y-1" value="&lt;font size=&quot;1&quot;&gt;&lt;b style=&quot;font-size: 31px;&quot;&gt;Yandex Cloud&lt;/b&gt;&lt;/font&gt;" style="text;html=1;align=center;verticalAlign=middle;whiteSpace=wrap;rounded=0;fontSize=16;" parent="LJwqWdsHmtlXlG4Iy3JH-1" vertex="1">
          <mxGeometry x="493.45414364640885" y="40" width="289.6795580110497" height="30" as="geometry" />
        </mxCell>
        <mxCell id="EgRt5MOaTffVcbJhi47y-30" value="" style="group" parent="LJwqWdsHmtlXlG4Iy3JH-1" vertex="1" connectable="0">
          <mxGeometry x="493.45414364640885" y="350" width="404.5524861878453" height="275" as="geometry" />
        </mxCell>
        <mxCell id="EgRt5MOaTffVcbJhi47y-13" value="" style="rounded=1;whiteSpace=wrap;html=1;" parent="EgRt5MOaTffVcbJhi47y-30" vertex="1">
          <mxGeometry x="39.95580110497237" width="269.70165745856355" height="275" as="geometry" />
        </mxCell>
        <mxCell id="EgRt5MOaTffVcbJhi47y-14" value="" style="rounded=1;whiteSpace=wrap;html=1;fillColor=#ffe6cc;strokeColor=#d79b00;" parent="EgRt5MOaTffVcbJhi47y-30" vertex="1">
          <mxGeometry x="49.94475138121547" y="45" width="139.84530386740332" height="130" as="geometry" />
        </mxCell>
        <mxCell id="EgRt5MOaTffVcbJhi47y-15" value="node-exporter" style="rounded=1;whiteSpace=wrap;html=1;" parent="EgRt5MOaTffVcbJhi47y-30" vertex="1">
          <mxGeometry x="59.93370165745856" y="85" width="59.93370165745856" height="60" as="geometry" />
        </mxCell>
        <mxCell id="EgRt5MOaTffVcbJhi47y-16" value="openvpn-exporter" style="rounded=1;whiteSpace=wrap;html=1;" parent="EgRt5MOaTffVcbJhi47y-30" vertex="1">
          <mxGeometry x="122.86408839779006" y="86" width="59.93370165745856" height="60" as="geometry" />
        </mxCell>
        <mxCell id="EgRt5MOaTffVcbJhi47y-18" value="monitoring" style="text;html=1;align=center;verticalAlign=middle;whiteSpace=wrap;rounded=0;fontSize=16;" parent="EgRt5MOaTffVcbJhi47y-30" vertex="1">
          <mxGeometry x="85.40552486187845" y="45" width="59.93370165745856" height="30" as="geometry" />
        </mxCell>
        <mxCell id="EgRt5MOaTffVcbJhi47y-19" value="" style="rounded=1;whiteSpace=wrap;html=1;fillColor=#f8cecc;strokeColor=#b85450;" parent="EgRt5MOaTffVcbJhi47y-30" vertex="1">
          <mxGeometry x="194.78453038674033" y="45" width="104.88397790055248" height="130" as="geometry" />
        </mxCell>
        <mxCell id="EgRt5MOaTffVcbJhi47y-20" value="easy-rsa" style="rounded=1;whiteSpace=wrap;html=1;" parent="EgRt5MOaTffVcbJhi47y-30" vertex="1">
          <mxGeometry x="204.77348066298342" y="75" width="84.90607734806629" height="40" as="geometry" />
        </mxCell>
        <mxCell id="EgRt5MOaTffVcbJhi47y-21" value="openvpn" style="rounded=1;whiteSpace=wrap;html=1;" parent="EgRt5MOaTffVcbJhi47y-30" vertex="1">
          <mxGeometry x="204.77348066298342" y="117.5" width="84.90607734806629" height="40" as="geometry" />
        </mxCell>
        <mxCell id="EgRt5MOaTffVcbJhi47y-22" value="VPN" style="text;html=1;align=center;verticalAlign=middle;whiteSpace=wrap;rounded=0;fontSize=16;" parent="EgRt5MOaTffVcbJhi47y-30" vertex="1">
          <mxGeometry x="224.75138121546962" y="45" width="59.93370165745856" height="30" as="geometry" />
        </mxCell>
        <mxCell id="EgRt5MOaTffVcbJhi47y-23" value="iptables&lt;div&gt;NAT&lt;/div&gt;&lt;div&gt;firewall&lt;/div&gt;" style="rounded=1;whiteSpace=wrap;html=1;fillColor=#f5f5f5;strokeColor=#666666;fontColor=#333333;" parent="EgRt5MOaTffVcbJhi47y-30" vertex="1">
          <mxGeometry x="114.87292817679558" y="185" width="119.86740331491713" height="60" as="geometry" />
        </mxCell>
        <mxCell id="EgRt5MOaTffVcbJhi47y-26" value="&lt;b&gt;Server vpn&lt;/b&gt;" style="text;html=1;align=center;verticalAlign=middle;whiteSpace=wrap;rounded=0;fontSize=16;" parent="EgRt5MOaTffVcbJhi47y-30" vertex="1">
          <mxGeometry x="104.88397790055248" y="5" width="139.84530386740332" height="30" as="geometry" />
        </mxCell>
        <mxCell id="EgRt5MOaTffVcbJhi47y-27" value="vpn.nanocorpinfra.ru" style="text;html=1;align=center;verticalAlign=middle;whiteSpace=wrap;rounded=0;fontSize=16;" parent="EgRt5MOaTffVcbJhi47y-30" vertex="1">
          <mxGeometry x="132.353591160221" y="245" width="59.93370165745856" height="30" as="geometry" />
        </mxCell>
        <mxCell id="LJwqWdsHmtlXlG4Iy3JH-5" value="" style="shape=partialRectangle;whiteSpace=wrap;html=1;left=0;right=0;fillColor=#f8cecc;strokeColor=#b85450;movable=1;resizable=1;rotatable=1;deletable=1;editable=1;locked=0;connectable=1;" vertex="1" parent="EgRt5MOaTffVcbJhi47y-30">
          <mxGeometry x="234.74" y="209" width="169.81" height="13" as="geometry" />
        </mxCell>
        <mxCell id="EgRt5MOaTffVcbJhi47y-25" value="&lt;font style=&quot;font-size: 9px;&quot;&gt;84.201.128.115&lt;/font&gt;" style="text;html=1;align=center;verticalAlign=middle;whiteSpace=wrap;rounded=0;fontSize=16;" parent="EgRt5MOaTffVcbJhi47y-30" vertex="1">
          <mxGeometry x="239.73480662983425" y="200" width="59.93370165745856" height="30" as="geometry" />
        </mxCell>
        <mxCell id="LJwqWdsHmtlXlG4Iy3JH-6" value="" style="shape=partialRectangle;whiteSpace=wrap;html=1;left=0;right=0;fillColor=#f8cecc;strokeColor=#b85450;movable=1;resizable=1;rotatable=1;deletable=1;editable=1;locked=0;connectable=1;" vertex="1" parent="EgRt5MOaTffVcbJhi47y-30">
          <mxGeometry x="-130" y="209" width="244.87" height="13" as="geometry" />
        </mxCell>
        <mxCell id="EgRt5MOaTffVcbJhi47y-24" value="&lt;font style=&quot;font-size: 9px;&quot;&gt;192.168.0.131/25&lt;/font&gt;" style="text;html=1;align=center;verticalAlign=middle;whiteSpace=wrap;rounded=0;fontSize=16;" parent="EgRt5MOaTffVcbJhi47y-30" vertex="1">
          <mxGeometry x="46.94806629834254" y="200" width="59.93370165745856" height="30" as="geometry" />
        </mxCell>
        <mxCell id="EgRt5MOaTffVcbJhi47y-31" value="" style="group" parent="LJwqWdsHmtlXlG4Iy3JH-1" vertex="1" connectable="0">
          <mxGeometry x="80" y="40" width="294.59" height="275" as="geometry" />
        </mxCell>
        <mxCell id="EgRt5MOaTffVcbJhi47y-32" value="" style="rounded=1;whiteSpace=wrap;html=1;" parent="EgRt5MOaTffVcbJhi47y-31" vertex="1">
          <mxGeometry x="10" width="284.59" height="275" as="geometry" />
        </mxCell>
        <mxCell id="EgRt5MOaTffVcbJhi47y-37" value="" style="rounded=1;whiteSpace=wrap;html=1;fillColor=#f8cecc;strokeColor=#b85450;" parent="EgRt5MOaTffVcbJhi47y-31" vertex="1">
          <mxGeometry x="170" y="41" width="116.76" height="130" as="geometry" />
        </mxCell>
        <mxCell id="EgRt5MOaTffVcbJhi47y-38" value="easy-rsa" style="rounded=1;whiteSpace=wrap;html=1;" parent="EgRt5MOaTffVcbJhi47y-31" vertex="1">
          <mxGeometry x="179" y="75" width="100.09" height="40" as="geometry" />
        </mxCell>
        <mxCell id="EgRt5MOaTffVcbJhi47y-40" value="CA" style="text;html=1;align=center;verticalAlign=middle;whiteSpace=wrap;rounded=0;fontSize=16;" parent="EgRt5MOaTffVcbJhi47y-31" vertex="1">
          <mxGeometry x="202.38930793694686" y="45" width="51.986470588235285" height="30" as="geometry" />
        </mxCell>
        <mxCell id="EgRt5MOaTffVcbJhi47y-44" value="&lt;b&gt;Server CA&lt;/b&gt;" style="text;html=1;align=center;verticalAlign=middle;whiteSpace=wrap;rounded=0;fontSize=16;" parent="EgRt5MOaTffVcbJhi47y-31" vertex="1">
          <mxGeometry x="90.97632352941174" y="5" width="121.30176470588232" height="30" as="geometry" />
        </mxCell>
        <mxCell id="EgRt5MOaTffVcbJhi47y-45" value="ca.nanocorpinfra.ru" style="text;html=1;align=center;verticalAlign=middle;whiteSpace=wrap;rounded=0;fontSize=16;" parent="EgRt5MOaTffVcbJhi47y-31" vertex="1">
          <mxGeometry x="123.80345588235294" y="245" width="51.986470588235285" height="30" as="geometry" />
        </mxCell>
        <mxCell id="LJwqWdsHmtlXlG4Iy3JH-26" value="" style="group" vertex="1" connectable="0" parent="EgRt5MOaTffVcbJhi47y-31">
          <mxGeometry x="16.96685082872932" y="42" width="146.8" height="130" as="geometry" />
        </mxCell>
        <mxCell id="LJwqWdsHmtlXlG4Iy3JH-27" value="" style="rounded=1;whiteSpace=wrap;html=1;fillColor=#ffe6cc;strokeColor=#d79b00;" vertex="1" parent="LJwqWdsHmtlXlG4Iy3JH-26">
          <mxGeometry width="146.8" height="130" as="geometry" />
        </mxCell>
        <mxCell id="LJwqWdsHmtlXlG4Iy3JH-28" value="node-exporter" style="rounded=1;whiteSpace=wrap;html=1;" vertex="1" parent="LJwqWdsHmtlXlG4Iy3JH-26">
          <mxGeometry x="43.431546961325964" y="35" width="59.933701657458556" height="60" as="geometry" />
        </mxCell>
        <mxCell id="LJwqWdsHmtlXlG4Iy3JH-29" value="monitoring" style="text;html=1;align=center;verticalAlign=middle;whiteSpace=wrap;rounded=0;fontSize=16;" vertex="1" parent="LJwqWdsHmtlXlG4Iy3JH-26">
          <mxGeometry x="44.87988950276241" width="59.933701657458556" height="30" as="geometry" />
        </mxCell>
        <mxCell id="LJwqWdsHmtlXlG4Iy3JH-33" value="iptables" style="rounded=1;whiteSpace=wrap;html=1;fillColor=#f5f5f5;strokeColor=#666666;fontColor=#333333;" vertex="1" parent="EgRt5MOaTffVcbJhi47y-31">
          <mxGeometry x="89.65685082872932" y="185" width="95.13" height="60" as="geometry" />
        </mxCell>
        <mxCell id="LJwqWdsHmtlXlG4Iy3JH-36" value="" style="shape=partialRectangle;whiteSpace=wrap;html=1;left=0;right=0;fillColor=#f8cecc;strokeColor=#b85450;movable=1;resizable=1;rotatable=1;deletable=1;editable=1;locked=0;connectable=1;" vertex="1" parent="EgRt5MOaTffVcbJhi47y-31">
          <mxGeometry x="184.7868508287293" y="208.5" width="109" height="13" as="geometry" />
        </mxCell>
        <mxCell id="EgRt5MOaTffVcbJhi47y-42" value="&lt;font style=&quot;font-size: 11px;&quot;&gt;192.168.0.3&lt;/font&gt;&lt;span style=&quot;font-size: 11px;&quot;&gt;/25&lt;/span&gt;" style="text;html=1;align=center;verticalAlign=middle;whiteSpace=wrap;rounded=0;fontSize=16;" parent="EgRt5MOaTffVcbJhi47y-31" vertex="1">
          <mxGeometry x="216.61029411764702" y="200" width="51.986470588235285" height="30" as="geometry" />
        </mxCell>
        <mxCell id="EgRt5MOaTffVcbJhi47y-46" value="" style="group" parent="LJwqWdsHmtlXlG4Iy3JH-1" vertex="1" connectable="0">
          <mxGeometry x="29.96685082872928" y="350" width="474.8672928176795" height="275" as="geometry" />
        </mxCell>
        <mxCell id="EgRt5MOaTffVcbJhi47y-47" value="" style="rounded=1;whiteSpace=wrap;html=1;" parent="EgRt5MOaTffVcbJhi47y-46" vertex="1">
          <mxGeometry x="60" width="279.62" height="275" as="geometry" />
        </mxCell>
        <mxCell id="EgRt5MOaTffVcbJhi47y-52" value="" style="rounded=1;whiteSpace=wrap;html=1;fillColor=#f8cecc;strokeColor=#b85450;" parent="EgRt5MOaTffVcbJhi47y-46" vertex="1">
          <mxGeometry x="220" y="45" width="111.65" height="130" as="geometry" />
        </mxCell>
        <mxCell id="EgRt5MOaTffVcbJhi47y-53" value="Prometheus" style="rounded=1;whiteSpace=wrap;html=1;" parent="EgRt5MOaTffVcbJhi47y-46" vertex="1">
          <mxGeometry x="225.7734806629834" y="75" width="99.88950276243092" height="40" as="geometry" />
        </mxCell>
        <mxCell id="EgRt5MOaTffVcbJhi47y-54" value="Alertmanager" style="rounded=1;whiteSpace=wrap;html=1;" parent="EgRt5MOaTffVcbJhi47y-46" vertex="1">
          <mxGeometry x="224.7734806629834" y="117.5" width="99.88950276243092" height="40" as="geometry" />
        </mxCell>
        <mxCell id="EgRt5MOaTffVcbJhi47y-55" value="Prometheus" style="text;html=1;align=center;verticalAlign=middle;whiteSpace=wrap;rounded=0;fontSize=16;" parent="EgRt5MOaTffVcbJhi47y-46" vertex="1">
          <mxGeometry x="245.7513812154696" y="45" width="59.933701657458556" height="30" as="geometry" />
        </mxCell>
        <mxCell id="EgRt5MOaTffVcbJhi47y-56" value="iptables" style="rounded=1;whiteSpace=wrap;html=1;fillColor=#f5f5f5;strokeColor=#666666;fontColor=#333333;" parent="EgRt5MOaTffVcbJhi47y-46" vertex="1">
          <mxGeometry x="134.87" y="185" width="95.13" height="60" as="geometry" />
        </mxCell>
        <mxCell id="EgRt5MOaTffVcbJhi47y-59" value="&lt;b&gt;Monitoring&lt;/b&gt;" style="text;html=1;align=center;verticalAlign=middle;whiteSpace=wrap;rounded=0;fontSize=16;" parent="EgRt5MOaTffVcbJhi47y-46" vertex="1">
          <mxGeometry x="129.88397790055245" width="139.8453038674033" height="30" as="geometry" />
        </mxCell>
        <mxCell id="EgRt5MOaTffVcbJhi47y-60" value="monitor.nanocorpinfra.ru" style="text;html=1;align=center;verticalAlign=middle;whiteSpace=wrap;rounded=0;fontSize=16;" parent="EgRt5MOaTffVcbJhi47y-46" vertex="1">
          <mxGeometry x="190" y="245" width="22.4" height="30" as="geometry" />
        </mxCell>
        <mxCell id="LJwqWdsHmtlXlG4Iy3JH-24" value="" style="shape=partialRectangle;whiteSpace=wrap;html=1;left=0;right=0;fillColor=#f8cecc;strokeColor=#b85450;movable=1;resizable=1;rotatable=1;deletable=1;editable=1;locked=0;connectable=1;" vertex="1" parent="EgRt5MOaTffVcbJhi47y-46">
          <mxGeometry x="230" y="209" width="109" height="13" as="geometry" />
        </mxCell>
        <mxCell id="EgRt5MOaTffVcbJhi47y-57" value="&lt;font style=&quot;font-size: 11px;&quot;&gt;192.168.0.131/25&lt;/font&gt;" style="text;html=1;align=center;verticalAlign=middle;whiteSpace=wrap;rounded=0;fontSize=16;" parent="EgRt5MOaTffVcbJhi47y-46" vertex="1">
          <mxGeometry x="254.71823204419886" y="200" width="59.933701657458556" height="30" as="geometry" />
        </mxCell>
        <mxCell id="LJwqWdsHmtlXlG4Iy3JH-25" value="" style="group" vertex="1" connectable="0" parent="EgRt5MOaTffVcbJhi47y-46">
          <mxGeometry x="67" y="45" width="146.8" height="130" as="geometry" />
        </mxCell>
        <mxCell id="EgRt5MOaTffVcbJhi47y-48" value="" style="rounded=1;whiteSpace=wrap;html=1;fillColor=#ffe6cc;strokeColor=#d79b00;" parent="LJwqWdsHmtlXlG4Iy3JH-25" vertex="1">
          <mxGeometry width="146.8" height="130" as="geometry" />
        </mxCell>
        <mxCell id="EgRt5MOaTffVcbJhi47y-49" value="node-exporter" style="rounded=1;whiteSpace=wrap;html=1;" parent="LJwqWdsHmtlXlG4Iy3JH-25" vertex="1">
          <mxGeometry x="43.431546961325964" y="35" width="59.933701657458556" height="60" as="geometry" />
        </mxCell>
        <mxCell id="EgRt5MOaTffVcbJhi47y-51" value="monitoring" style="text;html=1;align=center;verticalAlign=middle;whiteSpace=wrap;rounded=0;fontSize=16;" parent="LJwqWdsHmtlXlG4Iy3JH-25" vertex="1">
          <mxGeometry x="44.87988950276241" width="59.933701657458556" height="30" as="geometry" />
        </mxCell>
        <mxCell id="EgRt5MOaTffVcbJhi47y-61" value="" style="group" parent="LJwqWdsHmtlXlG4Iy3JH-1" vertex="1" connectable="0">
          <mxGeometry x="29.96685082872928" y="673" width="342.97" height="275" as="geometry" />
        </mxCell>
        <mxCell id="EgRt5MOaTffVcbJhi47y-62" value="" style="rounded=1;whiteSpace=wrap;html=1;" parent="EgRt5MOaTffVcbJhi47y-61" vertex="1">
          <mxGeometry x="60" width="279.62" height="275" as="geometry" />
        </mxCell>
        <mxCell id="EgRt5MOaTffVcbJhi47y-63" value="" style="rounded=1;whiteSpace=wrap;html=1;fillColor=#ffe6cc;strokeColor=#d79b00;" parent="EgRt5MOaTffVcbJhi47y-61" vertex="1">
          <mxGeometry x="66" y="47" width="137.86" height="130" as="geometry" />
        </mxCell>
        <mxCell id="EgRt5MOaTffVcbJhi47y-64" value="node-exporter" style="rounded=1;whiteSpace=wrap;html=1;" parent="EgRt5MOaTffVcbJhi47y-61" vertex="1">
          <mxGeometry x="73.03132596685083" y="82" width="59.933701657458556" height="60" as="geometry" />
        </mxCell>
        <mxCell id="EgRt5MOaTffVcbJhi47y-65" value="nginx-exporter" style="rounded=1;whiteSpace=wrap;html=1;" parent="EgRt5MOaTffVcbJhi47y-61" vertex="1">
          <mxGeometry x="138.03397790055246" y="83" width="59.933701657458556" height="60" as="geometry" />
        </mxCell>
        <mxCell id="EgRt5MOaTffVcbJhi47y-66" value="monitoring" style="text;html=1;align=center;verticalAlign=middle;whiteSpace=wrap;rounded=0;fontSize=16;" parent="EgRt5MOaTffVcbJhi47y-61" vertex="1">
          <mxGeometry x="98.02988950276242" y="47" width="59.933701657458556" height="30" as="geometry" />
        </mxCell>
        <mxCell id="EgRt5MOaTffVcbJhi47y-67" value="" style="rounded=1;whiteSpace=wrap;html=1;fillColor=#f8cecc;strokeColor=#b85450;" parent="EgRt5MOaTffVcbJhi47y-61" vertex="1">
          <mxGeometry x="209.0345303867403" y="45" width="119.86740331491711" height="130" as="geometry" />
        </mxCell>
        <mxCell id="EgRt5MOaTffVcbJhi47y-68" value="aptly" style="rounded=1;whiteSpace=wrap;html=1;" parent="EgRt5MOaTffVcbJhi47y-61" vertex="1">
          <mxGeometry x="219.0234806629834" y="75" width="99.88950276243092" height="40" as="geometry" />
        </mxCell>
        <mxCell id="EgRt5MOaTffVcbJhi47y-69" value="nginx" style="rounded=1;whiteSpace=wrap;html=1;" parent="EgRt5MOaTffVcbJhi47y-61" vertex="1">
          <mxGeometry x="219.0234806629834" y="117.5" width="99.88950276243092" height="40" as="geometry" />
        </mxCell>
        <mxCell id="EgRt5MOaTffVcbJhi47y-70" value="Repo" style="text;html=1;align=center;verticalAlign=middle;whiteSpace=wrap;rounded=0;fontSize=16;" parent="EgRt5MOaTffVcbJhi47y-61" vertex="1">
          <mxGeometry x="239.0013812154696" y="45" width="59.933701657458556" height="30" as="geometry" />
        </mxCell>
        <mxCell id="EgRt5MOaTffVcbJhi47y-74" value="&lt;b&gt;Server repo&lt;/b&gt;" style="text;html=1;align=center;verticalAlign=middle;whiteSpace=wrap;rounded=0;fontSize=16;" parent="EgRt5MOaTffVcbJhi47y-61" vertex="1">
          <mxGeometry x="132.03397790055246" y="6" width="139.8453038674033" height="30" as="geometry" />
        </mxCell>
        <mxCell id="EgRt5MOaTffVcbJhi47y-75" value="repo.nanocorpinfra.ru" style="text;html=1;align=center;verticalAlign=middle;whiteSpace=wrap;rounded=0;fontSize=16;" parent="EgRt5MOaTffVcbJhi47y-61" vertex="1">
          <mxGeometry x="174.033591160221" y="245" width="59.933701657458556" height="30" as="geometry" />
        </mxCell>
        <mxCell id="LJwqWdsHmtlXlG4Iy3JH-34" value="iptables" style="rounded=1;whiteSpace=wrap;html=1;fillColor=#f5f5f5;strokeColor=#666666;fontColor=#333333;" vertex="1" parent="EgRt5MOaTffVcbJhi47y-61">
          <mxGeometry x="138.84000000000006" y="185" width="95.13" height="60" as="geometry" />
        </mxCell>
        <mxCell id="LJwqWdsHmtlXlG4Iy3JH-119" value="" style="shape=partialRectangle;whiteSpace=wrap;html=1;left=0;right=0;fillColor=#f8cecc;strokeColor=#b85450;movable=1;resizable=1;rotatable=1;deletable=1;editable=1;locked=0;connectable=1;" vertex="1" parent="EgRt5MOaTffVcbJhi47y-61">
          <mxGeometry x="233.97" y="208.5" width="105.03" height="13" as="geometry" />
        </mxCell>
        <mxCell id="EgRt5MOaTffVcbJhi47y-72" value="&lt;font style=&quot;font-size: 11px;&quot;&gt;192.168.0.6/25&lt;/font&gt;" style="text;html=1;align=center;verticalAlign=middle;whiteSpace=wrap;rounded=0;fontSize=16;" parent="EgRt5MOaTffVcbJhi47y-61" vertex="1">
          <mxGeometry x="254.71823204419886" y="200" width="59.933701657458556" height="30" as="geometry" />
        </mxCell>
        <mxCell id="EgRt5MOaTffVcbJhi47y-114" value="" style="group" parent="LJwqWdsHmtlXlG4Iy3JH-1" vertex="1" connectable="0">
          <mxGeometry x="903.0011049723756" y="358" width="459.49171270718233" height="280" as="geometry" />
        </mxCell>
        <mxCell id="EgRt5MOaTffVcbJhi47y-85" value="&lt;font color=&quot;#0f0f0f&quot; style=&quot;font-size: 30px;&quot;&gt;&lt;b&gt;INTERNET&lt;/b&gt;&lt;/font&gt;" style="html=1;outlineConnect=0;fillColor=#f5f5f5;strokeColor=#666666;gradientDirection=north;strokeWidth=2;shape=mxgraph.networks.cloud;fontColor=#333333;" parent="EgRt5MOaTffVcbJhi47y-114" vertex="1">
          <mxGeometry width="459.49171270718233" height="280" as="geometry" />
        </mxCell>
        <mxCell id="EgRt5MOaTffVcbJhi47y-112" value="&lt;font style=&quot;font-size: 15px;&quot;&gt;vpn tunnel&lt;/font&gt;" style="shape=partialRectangle;whiteSpace=wrap;html=1;left=0;right=0;fillColor=#f8cecc;strokeColor=#b85450;movable=1;resizable=1;rotatable=1;deletable=1;editable=1;locked=0;connectable=1;" parent="EgRt5MOaTffVcbJhi47y-114" vertex="1">
          <mxGeometry x="6" y="201" width="445" height="13" as="geometry" />
        </mxCell>
        <mxCell id="LJwqWdsHmtlXlG4Iy3JH-7" value="" style="rounded=1;whiteSpace=wrap;html=1;fillColor=#dae8fc;strokeColor=#6c8ebf;" vertex="1" parent="LJwqWdsHmtlXlG4Iy3JH-1">
          <mxGeometry x="1363.22" width="293.78" height="1010" as="geometry" />
        </mxCell>
        <mxCell id="LJwqWdsHmtlXlG4Iy3JH-10" value="" style="group" vertex="1" connectable="0" parent="LJwqWdsHmtlXlG4Iy3JH-1">
          <mxGeometry x="1450.69" y="161" width="125.31" height="703" as="geometry" />
        </mxCell>
        <mxCell id="EgRt5MOaTffVcbJhi47y-86" value="" style="fontColor=#0066CC;verticalAlign=top;verticalLabelPosition=bottom;labelPosition=center;align=center;html=1;outlineConnect=0;fillColor=#CCCCCC;strokeColor=#6881B3;gradientColor=none;gradientDirection=north;strokeWidth=2;shape=mxgraph.networks.monitor;" parent="LJwqWdsHmtlXlG4Iy3JH-10" vertex="1">
          <mxGeometry width="125.31000000000006" height="110" as="geometry" />
        </mxCell>
        <mxCell id="EgRt5MOaTffVcbJhi47y-87" value="" style="fontColor=#0066CC;verticalAlign=top;verticalLabelPosition=bottom;labelPosition=center;align=center;html=1;outlineConnect=0;fillColor=#CCCCCC;strokeColor=#6881B3;gradientColor=none;gradientDirection=north;strokeWidth=2;shape=mxgraph.networks.monitor;" parent="LJwqWdsHmtlXlG4Iy3JH-10" vertex="1">
          <mxGeometry y="150" width="125.31000000000006" height="110" as="geometry" />
        </mxCell>
        <mxCell id="EgRt5MOaTffVcbJhi47y-88" value="" style="fontColor=#0066CC;verticalAlign=top;verticalLabelPosition=bottom;labelPosition=center;align=center;html=1;outlineConnect=0;fillColor=#CCCCCC;strokeColor=#6881B3;gradientColor=none;gradientDirection=north;strokeWidth=2;shape=mxgraph.networks.monitor;" parent="LJwqWdsHmtlXlG4Iy3JH-10" vertex="1">
          <mxGeometry y="300" width="125.31000000000006" height="110" as="geometry" />
        </mxCell>
        <mxCell id="EgRt5MOaTffVcbJhi47y-89" value="" style="fontColor=#0066CC;verticalAlign=top;verticalLabelPosition=bottom;labelPosition=center;align=center;html=1;outlineConnect=0;fillColor=#CCCCCC;strokeColor=#6881B3;gradientColor=none;gradientDirection=north;strokeWidth=2;shape=mxgraph.networks.monitor;" parent="LJwqWdsHmtlXlG4Iy3JH-10" vertex="1">
          <mxGeometry y="450" width="125.31000000000006" height="110" as="geometry" />
        </mxCell>
        <mxCell id="EgRt5MOaTffVcbJhi47y-90" value="" style="fontColor=#0066CC;verticalAlign=top;verticalLabelPosition=bottom;labelPosition=center;align=center;html=1;outlineConnect=0;fillColor=#CCCCCC;strokeColor=#6881B3;gradientColor=none;gradientDirection=north;strokeWidth=2;shape=mxgraph.networks.monitor;" parent="LJwqWdsHmtlXlG4Iy3JH-10" vertex="1">
          <mxGeometry y="593" width="125.31000000000006" height="110" as="geometry" />
        </mxCell>
        <mxCell id="LJwqWdsHmtlXlG4Iy3JH-12" value="&lt;font size=&quot;1&quot;&gt;&lt;b style=&quot;font-size: 30px;&quot;&gt;Local office&lt;/b&gt;&lt;/font&gt;" style="text;html=1;align=center;verticalAlign=middle;whiteSpace=wrap;rounded=0;fontSize=16;" vertex="1" parent="LJwqWdsHmtlXlG4Iy3JH-1">
          <mxGeometry x="1449.61" y="49" width="127" height="48" as="geometry" />
        </mxCell>
        <mxCell id="LJwqWdsHmtlXlG4Iy3JH-13" value="" style="shape=partialRectangle;whiteSpace=wrap;html=1;left=0;right=0;fillColor=#f8cecc;strokeColor=#b85450;movable=1;resizable=1;rotatable=1;deletable=1;editable=1;locked=0;connectable=1;" vertex="1" parent="LJwqWdsHmtlXlG4Iy3JH-1">
          <mxGeometry x="1364.22" y="559" width="35.78" height="13" as="geometry" />
        </mxCell>
        <mxCell id="LJwqWdsHmtlXlG4Iy3JH-16" value="" style="shape=partialRectangle;whiteSpace=wrap;html=1;left=0;right=0;fillColor=#f8cecc;strokeColor=#b85450;movable=1;resizable=1;rotatable=1;deletable=1;editable=1;locked=0;connectable=1;" vertex="1" parent="LJwqWdsHmtlXlG4Iy3JH-1">
          <mxGeometry x="1400" y="202" width="49.61" height="13" as="geometry" />
        </mxCell>
        <mxCell id="LJwqWdsHmtlXlG4Iy3JH-17" value="" style="shape=partialRectangle;whiteSpace=wrap;html=1;left=0;right=0;fillColor=#f8cecc;strokeColor=#b85450;movable=1;resizable=1;rotatable=1;deletable=1;editable=1;locked=0;connectable=1;" vertex="1" parent="LJwqWdsHmtlXlG4Iy3JH-1">
          <mxGeometry x="1400" y="350" width="49.61" height="13" as="geometry" />
        </mxCell>
        <mxCell id="LJwqWdsHmtlXlG4Iy3JH-18" value="" style="shape=partialRectangle;whiteSpace=wrap;html=1;left=0;right=0;fillColor=#f8cecc;strokeColor=#b85450;movable=1;resizable=1;rotatable=1;deletable=1;editable=1;locked=0;connectable=1;" vertex="1" parent="LJwqWdsHmtlXlG4Iy3JH-1">
          <mxGeometry x="1400" y="498.5" width="49.61" height="13" as="geometry" />
        </mxCell>
        <mxCell id="LJwqWdsHmtlXlG4Iy3JH-19" value="" style="shape=partialRectangle;whiteSpace=wrap;html=1;left=0;right=0;fillColor=#f8cecc;strokeColor=#b85450;movable=1;resizable=1;rotatable=1;deletable=1;editable=1;locked=0;connectable=1;" vertex="1" parent="LJwqWdsHmtlXlG4Iy3JH-1">
          <mxGeometry x="1400" y="652" width="49.61" height="13" as="geometry" />
        </mxCell>
        <mxCell id="LJwqWdsHmtlXlG4Iy3JH-20" value="" style="shape=partialRectangle;whiteSpace=wrap;html=1;left=0;right=0;fillColor=#f8cecc;strokeColor=#b85450;movable=1;resizable=1;rotatable=1;deletable=1;editable=1;locked=0;connectable=1;" vertex="1" parent="LJwqWdsHmtlXlG4Iy3JH-1">
          <mxGeometry x="1400" y="792" width="49.61" height="13" as="geometry" />
        </mxCell>
        <mxCell id="LJwqWdsHmtlXlG4Iy3JH-15" value="" style="shape=partialRectangle;whiteSpace=wrap;html=1;left=0;right=0;fillColor=#f8cecc;strokeColor=#b85450;movable=1;resizable=1;rotatable=1;deletable=1;editable=1;locked=0;connectable=1;rotation=-90;" vertex="1" parent="LJwqWdsHmtlXlG4Iy3JH-1">
          <mxGeometry x="1105.17" y="497.5" width="601.45" height="13" as="geometry" />
        </mxCell>
        <mxCell id="LJwqWdsHmtlXlG4Iy3JH-35" value="" style="shape=partialRectangle;whiteSpace=wrap;html=1;left=0;right=0;fillColor=#f8cecc;strokeColor=#b85450;movable=1;resizable=1;rotatable=1;deletable=1;editable=1;locked=0;connectable=1;" vertex="1" parent="LJwqWdsHmtlXlG4Iy3JH-1">
          <mxGeometry x="375.59" y="248" width="70.41" height="13" as="geometry" />
        </mxCell>
        <mxCell id="LJwqWdsHmtlXlG4Iy3JH-120" value="" style="shape=partialRectangle;whiteSpace=wrap;html=1;left=0;right=0;fillColor=#f8cecc;strokeColor=#b85450;movable=1;resizable=1;rotatable=1;deletable=1;editable=1;locked=0;connectable=1;" vertex="1" parent="LJwqWdsHmtlXlG4Iy3JH-1">
          <mxGeometry x="370" y="881.5" width="76" height="13" as="geometry" />
        </mxCell>
        <mxCell id="LJwqWdsHmtlXlG4Iy3JH-121" value="" style="shape=partialRectangle;whiteSpace=wrap;html=1;left=0;right=0;fillColor=#f8cecc;strokeColor=#b85450;movable=1;resizable=1;rotatable=1;deletable=1;editable=1;locked=0;connectable=1;rotation=-90;" vertex="1" parent="LJwqWdsHmtlXlG4Iy3JH-1">
          <mxGeometry x="117.5" y="564.5" width="646" height="13" as="geometry" />
        </mxCell>
      </root>
    </mxGraphModel>
  </diagram>
</mxfile>
